<?xml version="1.0" encoding="UTF-8"?><svg id="a" xmlns="http://www.w3.org/2000/svg" width="132.75" height="75" viewBox="0 0 132.75 75"><defs><style>.b{fill:#00ebde;}.c{fill:#004fe6;}.d{fill:#e9e9e9;}.e{fill:#fbaee5;}.f{fill:#ff3371;}.g{fill:#ff68de;}.h{fill:#d9b5ec;}.i{fill:#e0f783;}.j{fill:#32b3f0;}</style></defs><path class="f" d="M51.66,36h-12.38V9.33c3.54,.05,6.86,2.24,8.99,5.18,2.13,2.94,3.18,6.56,3.54,10.17,.36,3.61,.17,7.7-.15,11.32Z"/><path class="i" d="M70.81,25.75c-1.6,1.64-3.2,3.28-5.16,4.4-1.96,1.13-4.35,1.69-6.5,1-1.92-.61-3.41-2.12-4.81-3.58,.12-3.08-.19-6.36-1.16-9.46-.97-3.1-2.63-6.02-5.04-8.21-2.41-2.18-5.82-3.64-9.07-3.6,0-.35,.04-3.69,0-3.99,7,.17,13.93,2.54,19.57,6.7,5.63,4.16,9.94,10.09,12.16,16.73Z"/><path class="b" d="M72.72,36h-18.56v-4.41c2.7,1.87,6.09,2.63,9.33,2.13,3.24-.5,6.27-2.28,8.29-4.87,.61,2.32,.91,4.74,.94,7.14Z"/><path class="d" d="M41.76,38.77c-1.03,.52-1.94,1.38-2.51,2.43-.02-.09-.02-2.43-.02-2.43h2.54Z"/><path class="d" d="M39.22,49.24v-.04"/><path class="j" d="M61.52,63.24c-2.52-3.53-6.58-5.91-10.88-6.4-2.22-.25-4.56-.04-6.6-.95-2.12-.95-3.41-2.89-4.78-4.76,0-.65-.06-1.29-.05-1.94,8.85,.07,11.11,.09,20.12,.16,.5-3.92-.89-7.78-3.8-10.7,5.7-.01,11.39-.03,17.09,.03,.23,9.19-3.98,18.78-11.1,24.55Z"/><path class="e" d="M59.74,64.89c-5.58,3.96-13.99,6.55-20.68,7.48v-16.46s.03-.3,.05-.44c1.26,1.53,3.1,2.68,5.1,3.13,1.62,.37,3.31,.29,4.95,.55,4.01,.64,7.39,3.24,10.58,5.75Z"/><path class="h" d="M56.57,46.77c-2.5,0-4.98,.02-7.31,.02-3.42,0-6.65-.06-10.07-.06h0c-.23-2.06,.81-4.19,2.4-5.53,1.59-1.33,3.67-1.98,5.74-2.16,2.68-.23,5.63,.42,7.37,2.48,1.19,1.41,1.65,3.29,1.88,5.24Z"/><line class="d" x1="36.41" y1="47.86" x2="36.41" y2="48.2"/><path class="f" d="M36.46,38.89l-.05,8.97c-2.2-2.48-5.62-3.78-8.94-3.56-3.42,.23-6.66,2.02-8.85,4.67,.08-.13,.18-10.14,.18-10.14l17.65,.05Z"/><path class="d" d="M36.62,48.1c-.07-.08-.14-.16-.21-.24"/><path class="c" d="M36.49,53.81l-.03,18.63c-7.37-.19-14.66-2.86-20.41-7.48,2.09-3.47,2.98-7.69,2.68-11.72,1.46-2.38,3.56-4.45,6.15-5.48,2.6-1.04,5.71-.93,8.03,.63,1.9,1.28,2.95,3.22,3.57,5.43Z"/><path class="d" d="M16.05,64.95l-.02,.03"/><path class="d" d="M16.05,64.95l-.05-.04"/><path class="i" d="M16.04,56.7s-2.33,5.78-2.35,5.89c-6.61-6.06-10.62-14.85-10.84-23.81l13.12,.17,.06,17.74Z"/><path class="h" d="M36.35,14.82v.09l.03,20.15v1.05c-.33,0-.66,.02-1.04,.13-2.03-1.13-3.05-3.49-3.57-5.75-.52-2.27-.7-4.65-1.72-6.74-1.32-2.7-4.04-4.66-7.02-5.04,1.85-1.5,2.61-3.99,4.29-5.67,2.9-2.9,5.25-4.18,9.11-4.02l-.06,5.75-.03,.06Z"/><path class="j" d="M36.52,6.3c-5.23,.08-10.33,3-13.05,7.46-.71,1.17-1.3,2.47-2.33,3.37-1.45,1.27-3.58,1.54-5.47,1.16-1.89-.38-3.7-1.41-5.39-2.34C16.63,7.97,26.31,3.04,36.49,2.37l.03,3.93Z"/><path class="d" d="M36.57,6.3s-.04,0-.06,0"/><path class="b" d="M13.72,20.77s-.01,.06-.01,.06c-.91,.52-1.66,1.22-2.41,1.91-1,.93-2.01,1.86-3.15,2.62-1.14,.76-2.43,1.34-3.79,1.48,1.04-2.9,2.42-5.75,4.12-8.4,1.63,.9,3.42,1.68,5.26,2.33Z"/><path class="g" d="M31.12,36.17l-11.62,.07-.24,.02c-5.51-.04-10.96-.08-16.47-.12,.06-2.09,.44-4.33,.89-6.37,1.98,.15,3.89-.66,5.54-1.76,1.65-1.11,3.07-2.52,4.61-3.78,1.53-1.27,3.23-2.42,5.17-2.87,1.94-.45,4.04-.14,5.77,.84,1.73,.98,3.06,2.63,3.67,4.53,.51,1.61,.5,3.33,.7,5.01,.19,1.68,.78,3.27,1.99,4.45Z"/><g><path class="c" d="M81.57,31.61l2.89,4.64h-2.13l-2.27-3.65h-.68v3.65h-1.83v-9.29h1.83v3.81h.59l2.37-3.81h2.13l-2.89,4.64Z"/><path class="c" d="M90.37,26.97h1.81v5.55c0,.52-.11,1-.31,1.45-.2,.45-.47,.85-.81,1.18-.34,.34-.74,.61-1.2,.8-.45,.2-.94,.29-1.46,.29h-.44c-.52,0-1-.1-1.46-.29-.45-.2-.85-.46-1.2-.8-.34-.34-.61-.73-.81-1.18-.2-.45-.3-.93-.31-1.45v-5.55h1.81v5.5c0,.27,.05,.52,.15,.76,.1,.24,.24,.45,.42,.63,.18,.18,.39,.32,.63,.42s.5,.15,.76,.15h.44c.27,0,.52-.05,.76-.15s.45-.24,.63-.42c.18-.18,.32-.39,.42-.63,.1-.24,.15-.49,.15-.76v-5.5Z"/><path class="c" d="M99.12,30.61v-3.64h1.82v9.29h-1.82l-3.95-5.91v5.91h-1.82v-9.29h1.82l3.95,5.9v-2.26Z"/><path class="c" d="M106.19,26.97h3.51v1.82h-5.3v1.82h4.39v1.82h-4.39v2.01h5.3v1.82h-7.12v-9.29h3.61Z"/></g><g><path class="c" d="M81.36,38.58h3.29v1.82h-5.18v1.82h4.25v1.82h-4.25v3.83h-1.82v-9.29h3.71Z"/><path class="c" d="M88.56,38.58h3.51v1.82h-5.3v1.82h4.39v1.82h-4.39v2.01h5.3v1.82h-7.12v-9.29h3.61Z"/><path class="c" d="M96.3,40.61c-.38-.12-.71-.19-.98-.19-.27,0-.49,.03-.66,.1-.17,.07-.29,.17-.37,.29s-.11,.23-.11,.34c0,.21,.13,.39,.39,.54,.26,.14,.58,.28,.94,.41,.37,.13,.75,.27,1.15,.42,.4,.15,.74,.34,1.03,.58,.29,.23,.5,.5,.64,.82,.14,.31,.21,.63,.23,.96,.01,.33-.03,.65-.12,.96-.09,.31-.23,.59-.41,.83-.18,.24-.4,.44-.67,.6s-.6,.31-1,.45c-.39,.1-.79,.15-1.18,.14-.4,0-.78-.06-1.16-.15-.37-.1-.74-.25-1.08-.44-.35-.2-.66-.44-.95-.72l1.19-1.38c.29,.29,.62,.52,.98,.67,.45,.13,.83,.18,1.13,.17,.3,0,.54-.06,.71-.15,.17-.09,.3-.2,.37-.34,.07-.14,.11-.27,.11-.39-.02-.26-.15-.47-.4-.64-.25-.17-.55-.33-.9-.47-.35-.15-.72-.3-1.1-.45-.38-.16-.71-.34-.98-.56-.28-.21-.48-.46-.62-.75-.14-.29-.22-.58-.25-.88-.03-.3-.01-.6,.06-.88,.07-.29,.18-.54,.32-.75,.14-.22,.33-.41,.56-.56,.23-.15,.54-.3,.94-.44,.4-.11,.81-.16,1.22-.15,.41,0,.82,.07,1.2,.18,.39,.11,.76,.27,1.11,.48,.35,.21,.67,.47,.96,.77l-1.32,1.26c-.29-.29-.61-.51-.96-.66Z"/><path class="c" d="M104.48,38.58v1.82h-1.99v7.47h-1.82v-7.47h-1.99v-1.82h5.81Z"/><path class="c" d="M105.16,47.86v-9.29h1.82v9.29h-1.82Z"/><path class="c" d="M116.06,38.58l-3.61,9.29h-2.06l-3.61-9.29h2.06l2.58,6.64,2.58-6.64h2.06Z"/><path class="c" d="M116.65,38.58h2.06l3.61,9.29h-2.06l-.7-1.79h-3.77l-.7,1.79h-2.06l3.61-9.29Zm-.15,5.67h2.35l-1.18-3.02-1.18,3.02Z"/><path class="c" d="M127.84,46.04v1.82h-5.37v-9.27h1.82v7.45h3.55Z"/></g></svg>