<?xml version="1.0" encoding="UTF-8"?><svg id="a" xmlns="http://www.w3.org/2000/svg" width="75.2" height="73.91" viewBox="0 0 75.2 73.91"><defs><style>.b{fill:#00ebde;}.c{fill:#004fe6;}.d{fill:#e9e9e9;}.e{fill:#fbaee5;}.f{fill:#ff3371;}.g{fill:#ff68de;}.h{fill:#d9b5ec;}.i{fill:#e0f783;}.j{fill:#32b3f0;}</style></defs><path class="f" d="M51.9,35.49h-12.5V8.57c3.58,.05,6.92,2.26,9.08,5.23,2.15,2.97,3.21,6.62,3.57,10.27,.36,3.65,.17,7.78-.15,11.43Z"/><path class="i" d="M71.23,25.15c-1.62,1.66-3.23,3.31-5.21,4.45-1.98,1.14-4.39,1.71-6.56,1.01-1.94-.62-3.44-2.14-4.85-3.61,.12-3.11-.19-6.42-1.18-9.55-.98-3.13-2.66-6.08-5.09-8.29-2.43-2.2-5.88-3.68-9.16-3.64,0-.36,.04-3.72,0-4.03,7.07,.17,14.07,2.57,19.76,6.76,5.69,4.2,10.04,10.18,12.28,16.89Z"/><path class="b" d="M73.16,35.49h-18.74v-4.45c2.72,1.88,6.15,2.66,9.42,2.15,3.27-.5,6.33-2.3,8.37-4.91,.62,2.34,.92,4.79,.95,7.21Z"/><path class="d" d="M41.9,38.29c-1.04,.52-1.96,1.39-2.54,2.45-.02-.09-.02-2.45-.02-2.45h2.56Z"/><path class="d" d="M39.33,48.86v-.04"/><path class="j" d="M61.86,63c-2.54-3.56-6.64-5.97-10.99-6.46-2.24-.25-4.6-.04-6.66-.96-2.14-.96-3.44-2.91-4.83-4.8,0-.66-.06-1.3-.05-1.96,8.94,.07,11.22,.09,20.32,.16,.5-3.96-.9-7.86-3.84-10.8,5.75-.01,11.5-.03,17.26,.04,.23,9.28-4.02,18.96-11.21,24.79Z"/><path class="e" d="M60.06,64.66c-5.64,4-14.13,6.62-20.88,7.55v-16.62s.04-.3,.05-.45c1.27,1.55,3.13,2.7,5.15,3.16,1.63,.37,3.34,.29,5,.56,4.05,.65,7.46,3.27,10.68,5.8Z"/><path class="h" d="M56.85,46.37c-2.52,0-5.03,.02-7.39,.02-3.45,0-6.72-.06-10.17-.06h0c-.24-2.08,.82-4.23,2.42-5.58,1.61-1.35,3.71-2,5.8-2.18,2.71-.23,5.69,.42,7.44,2.51,1.2,1.43,1.67,3.33,1.9,5.3Z"/><line class="d" x1="36.5" y1="47.47" x2="36.5" y2="47.82"/><path class="f" d="M36.55,38.41l-.05,9.06c-2.22-2.5-5.68-3.82-9.03-3.59-3.45,.24-6.73,2.04-8.93,4.71,.08-.13,.19-10.24,.19-10.24l17.82,.05Z"/><path class="d" d="M36.71,47.72c-.07-.08-.14-.16-.21-.24"/><path class="c" d="M36.58,53.47l-.03,18.81c-7.45-.19-14.81-2.88-20.61-7.55,2.11-3.5,3.01-7.76,2.71-11.84,1.48-2.4,3.59-4.49,6.21-5.53,2.62-1.05,5.77-.94,8.11,.64,1.92,1.3,2.98,3.25,3.61,5.48Z"/><path class="d" d="M15.94,64.73l-.02,.04"/><path class="d" d="M15.94,64.73s-.04-.03-.06-.04"/><path class="i" d="M15.93,56.4s-2.36,5.84-2.37,5.95c-6.67-6.11-10.72-14.99-10.95-24.04l13.25,.18,.06,17.91Z"/><path class="h" d="M36.43,14.11v.09l.03,20.35v1.06c-.34,0-.67,.02-1.05,.13-2.05-1.14-3.08-3.52-3.6-5.81-.52-2.29-.71-4.7-1.74-6.81-1.33-2.72-4.08-4.7-7.08-5.09,1.86-1.52,2.64-4.03,4.34-5.73,2.93-2.93,5.3-4.22,9.2-4.06l-.06,5.8-.03,.06Z"/><path class="j" d="M36.61,5.51c-5.28,.09-10.43,3.03-13.18,7.54-.72,1.18-1.31,2.49-2.35,3.4-1.47,1.29-3.61,1.55-5.52,1.17-1.91-.39-3.73-1.42-5.44-2.37C16.53,7.19,26.3,2.22,36.58,1.54l.03,3.97Z"/><path class="d" d="M36.66,5.5s-.04,0-.06,0"/><path class="b" d="M13.59,20.12s-.01,.06-.01,.06c-.92,.53-1.68,1.23-2.44,1.93-1.01,.94-2.03,1.88-3.19,2.65-1.15,.76-2.45,1.35-3.82,1.49,1.05-2.93,2.44-5.81,4.16-8.49,1.65,.9,3.45,1.7,5.31,2.35Z"/><path class="g" d="M31.16,35.66l-11.73,.07-.24,.02c-5.56-.04-11.07-.08-16.63-.12,.06-2.11,.45-4.38,.9-6.44,2,.15,3.93-.66,5.6-1.78,1.67-1.12,3.1-2.54,4.65-3.82,1.55-1.28,3.26-2.44,5.22-2.89,1.96-.45,4.08-.14,5.82,.85,1.74,.99,3.09,2.66,3.7,4.57,.52,1.62,.51,3.36,.7,5.05,.19,1.69,.79,3.3,2.01,4.49Z"/></svg>